# Blender v2.77 (sub 0) OBJ File: ''
# www.blender.org
mtllib untitled.mtl
o Cube
v 0.884773 -1.178047 -0.909963
v 0.884773 -1.178047 1.090037
v -1.115227 -1.178047 1.090037
v -1.115227 -1.178047 -0.909964
v 0.884774 0.821953 -0.909963
v 0.884773 0.821953 1.090037
v -2.532648 0.821953 1.090036
v -2.532647 0.821953 -0.909963
vt 0.749957 0.500000
vt 0.500000 0.500000
vt 0.500000 0.250043
vt 0.749957 0.250043
vt 0.749957 0.749957
vt 0.500000 0.749957
vt 0.250043 0.500000
vt 0.250043 0.250043
vt 0.500000 0.000087
vt 0.749957 0.000087
vt 0.999913 0.500000
vt 0.999913 0.250043
vn 0.000000 -1.000000 0.000000
vn 1.000000 0.000000 0.000000
vn -0.000000 -0.000000 1.000000
vn -0.815900 -0.578200 -0.000000
vn 0.000000 0.000000 -1.000000
usemtl Material
s off
f 1/1/1 2/2/1 3/3/1 4/4/1
f 1/1/2 5/5/2 6/6/2 2/2/2
f 2/2/3 6/7/3 7/8/3 3/3/3
f 3/3/4 7/9/4 8/10/4 4/4/4
f 5/11/5 1/1/5 4/4/5 8/12/5
